<?xml version="1.0" encoding="UTF-8"?>
<svg id="Capa_2" data-name="Capa 2" xmlns="http://www.w3.org/2000/svg" viewBox="0 0 100 100">
  <defs>
    <style>
      .cls-1 {
        fill-rule: evenodd;
      }
    </style>
  </defs>
  <g id="Capa_2-2" data-name="Capa 2">
    <g id="Phone_number" data-name="Phone number">
      <path d="M50,100C22.43,100,0,77.57,0,50S22.43,0,50,0s50,22.43,50,50-22.43,50-50,50Zm0-92.97C26.31,7.03,7.03,26.31,7.03,50s19.28,42.97,42.97,42.97,42.97-19.28,42.97-42.97S73.69,7.03,50,7.03Z"/>
      <path class="cls-1" d="M74.82,66.66l-11.77-11.29c-.75-.72-1.95-.71-2.68,.03l-5.33,5.33c-6.8-4.09-12.15-9.27-15.76-15.76l5.33-5.33c.74-.74,.75-1.93,.03-2.68l-11.29-11.77c-.37-.39-.83-.58-1.36-.59-.54,0-1,.18-1.38,.56-1.28,1.28-2.04,2.04-3.79,3.79-12.54,12.54,31.71,56.79,44.25,44.25,1.75-1.75,2.51-2.51,3.79-3.79,.38-.38,.57-.84,.56-1.38,0-.54-.2-.99-.59-1.36h0Z"/>
    </g>
  </g>
</svg>