<?xml version="1.0" encoding="UTF-8"?>
<svg id="Capa_2" data-name="Capa 2" xmlns="http://www.w3.org/2000/svg" viewBox="0 0 95.01 100">
  <g id="Capa_2-2" data-name="Capa 2">
    <g>
      <polygon points="89.18 70.3 89.18 70.3 88.91 70.16 80.37 65.61 80.37 65.61 76.62 63.62 65.23 57.56 65.23 57.56 58.63 54.05 58.63 54.05 48.21 48.51 51.08 58.8 51.08 58.8 51.74 61.2 55.53 74.8 55.53 74.8 57.08 80.36 62.05 98.21 67.14 90.76 67.14 90.76 71.32 84.66 83.64 100 90.85 94.21 80.65 81.51 80.65 81.51 78.53 78.87 93.76 72.74 89.18 70.3 89.18 70.3"/>
      <path d="M11.07,65.61H30.66c1.21,8.35,3.29,15.85,6.21,21.18-11.3-3.07-20.67-10.89-25.8-21.18h0Zm-4.26-18.11c0-3.92,.56-7.71,1.6-11.29H29.88c-.32,3.71-.48,7.5-.48,11.29s.16,7.59,.48,11.3H8.41c-1.04-3.59-1.6-7.38-1.6-11.3h0ZM36.87,8.22c-2.92,5.33-4.99,12.82-6.21,21.18H11.07c5.13-10.29,14.5-18.11,25.8-21.18h0Zm3.48,9.18c2.44-7.32,5.36-10.59,7.16-10.59s4.73,3.27,7.16,10.59c1.18,3.53,2.12,7.59,2.8,12h-19.94c.68-4.42,1.63-8.47,2.8-12h0Zm43.61,12h-19.59c-1.21-8.35-3.29-15.85-6.21-21.18,11.3,3.06,20.67,10.89,25.8,21.18h0Zm-36.44,58.8c-1.81,0-4.73-3.27-7.16-10.59-1.18-3.53-2.12-7.59-2.8-12h10.44l-1.9-6.81h-9.37c-.33-3.63-.5-7.42-.5-11.3s.17-7.66,.5-11.29h21.59c.33,3.63,.5,7.42,.5,11.29,0,.4,0,.79-.01,1.18l6.73,3.58c.06-1.58,.09-3.17,.09-4.76,0-3.79-.16-7.59-.48-11.29h21.47c1.04,3.59,1.6,7.38,1.6,11.29s-.56,7.71-1.6,11.3h-8.8l13.47,7.16c.33-.79,.66-1.59,.95-2.4,.06-.14,.11-.28,.15-.43,1.71-4.9,2.64-10.16,2.64-15.63s-.93-10.73-2.64-15.63c-.04-.15-.09-.29-.15-.43C85.62,13.13,68.07,0,47.51,0S9.39,13.13,2.8,31.45c-.06,.14-.11,.28-.15,.43-1.71,4.9-2.64,10.16-2.64,15.63s.93,10.73,2.64,15.63c.04,.15,.09,.29,.15,.43,6.6,18.32,24.15,31.45,44.71,31.45,2.88,0,5.7-.27,8.45-.76l-3.26-11.72c-1.91,3.88-3.85,5.68-5.18,5.68h0Z"/>
    </g>
  </g>
</svg>