<?xml version="1.0" encoding="UTF-8"?>
<svg id="Capa_2" data-name="Capa 2" xmlns="http://www.w3.org/2000/svg" viewBox="0 0 435 33.17">
  <defs>
    <style>
      .cls-1 {
        fill: #3abc12;
      }
    </style>
  </defs>
  <g id="Capa_2-2" data-name="Capa 2">
    <path class="cls-1" d="M0,9c2.65,0,4.86,.33,6.81,.87,3.4,.96,6.05,2.58,8.65,4.71,1.94,1.59,3.82,3.47,5.81,5.47,2.99,2.98,6.26,6.25,10.61,8.82,2.17,1.28,4.61,2.37,7.35,3.13,2.74,.75,5.77,1.17,9.11,1.17,3.39,0,6.47-.43,9.24-1.21,4.86-1.35,8.73-3.78,11.94-6.42,2.41-1.98,4.48-4.09,6.46-6.06,2.96-2.97,5.69-5.6,8.82-7.44,1.57-.92,3.24-1.67,5.17-2.2,1.93-.53,4.11-.85,6.72-.85,2.65,0,4.86,.33,6.81,.87,3.4,.96,6.05,2.58,8.65,4.71,1.94,1.59,3.82,3.48,5.81,5.47,2.99,2.98,6.26,6.25,10.61,8.82,2.17,1.28,4.61,2.37,7.35,3.13,2.74,.75,5.76,1.17,9.11,1.17,3.4,0,6.46-.43,9.24-1.21,4.86-1.35,8.73-3.78,11.94-6.42,2.41-1.98,4.48-4.09,6.46-6.06,2.96-2.97,5.69-5.6,8.82-7.44,1.57-.92,3.24-1.67,5.17-2.2,1.93-.53,4.11-.85,6.72-.85,2.65,0,4.86,.33,6.81,.87,3.4,.96,6.05,2.58,8.65,4.71,1.94,1.59,3.81,3.48,5.81,5.47,2.99,2.98,6.26,6.25,10.61,8.82,2.17,1.28,4.61,2.37,7.35,3.13,2.74,.75,5.77,1.17,9.11,1.17,3.39,0,6.46-.43,9.24-1.21,4.86-1.35,8.73-3.78,11.94-6.42,2.41-1.98,4.48-4.09,6.45-6.06,2.96-2.97,5.69-5.6,8.82-7.44,1.57-.92,3.24-1.67,5.17-2.2,1.93-.53,4.11-.85,6.72-.85,2.65,0,4.86,.33,6.81,.87,3.4,.96,6.05,2.58,8.65,4.71,1.94,1.59,3.82,3.47,5.81,5.47,2.99,2.98,6.25,6.25,10.61,8.82,2.17,1.28,4.61,2.37,7.35,3.13,2.74,.75,5.76,1.17,9.11,1.17,3.39,0,6.47-.43,9.24-1.21,4.86-1.35,8.73-3.78,11.94-6.42,2.41-1.98,4.48-4.09,6.45-6.06,2.96-2.97,5.69-5.6,8.82-7.44,1.57-.92,3.24-1.67,5.17-2.2,1.92-.53,4.11-.85,6.72-.85,2.65,0,4.86,.33,6.81,.87,3.4,.96,6.05,2.58,8.65,4.71,1.94,1.59,3.82,3.48,5.81,5.47,2.99,2.98,6.26,6.25,10.61,8.82,2.17,1.28,4.61,2.37,7.35,3.13,2.74,.75,5.76,1.17,9.11,1.17v-9c-2.65,0-4.86-.33-6.81-.87-3.4-.96-6.05-2.58-8.65-4.71-1.94-1.59-3.82-3.48-5.81-5.47-2.99-2.98-6.25-6.25-10.61-8.82-2.17-1.28-4.61-2.37-7.35-3.13C393.03,.41,390.01,0,386.67,0c-3.39,0-6.47,.43-9.24,1.21-4.86,1.35-8.73,3.78-11.94,6.42-2.41,1.98-4.48,4.09-6.46,6.06-2.96,2.97-5.69,5.6-8.82,7.44-1.57,.92-3.24,1.67-5.16,2.2-1.93,.53-4.11,.85-6.72,.85-2.65,0-4.86-.33-6.81-.87-3.4-.96-6.05-2.58-8.65-4.71-1.94-1.59-3.82-3.48-5.81-5.47-2.99-2.98-6.26-6.25-10.61-8.82-2.17-1.28-4.61-2.37-7.35-3.13C296.37,.41,293.34,0,290,0c-3.39,0-6.46,.43-9.24,1.21-4.86,1.35-8.73,3.78-11.94,6.42-2.41,1.98-4.48,4.09-6.46,6.06-2.96,2.97-5.69,5.6-8.82,7.44-1.57,.92-3.24,1.67-5.16,2.2-1.93,.53-4.11,.85-6.72,.85-2.65,0-4.86-.33-6.81-.87-3.4-.96-6.05-2.58-8.65-4.71-1.94-1.59-3.82-3.47-5.81-5.47-2.99-2.98-6.25-6.25-10.61-8.82-2.17-1.28-4.61-2.37-7.35-3.13C199.7,.41,196.67,0,193.33,0c-3.39,0-6.46,.43-9.24,1.21-4.86,1.35-8.74,3.78-11.94,6.42-2.41,1.98-4.48,4.09-6.46,6.06-2.96,2.97-5.69,5.6-8.82,7.44-1.57,.92-3.24,1.67-5.17,2.2-1.93,.53-4.11,.85-6.72,.85-2.65,0-4.86-.33-6.81-.87-3.4-.96-6.05-2.58-8.65-4.71-1.94-1.59-3.82-3.48-5.81-5.47-2.99-2.98-6.26-6.25-10.61-8.82-2.17-1.28-4.61-2.37-7.35-3.13C103.03,.41,100.01,0,96.67,0c-3.39,0-6.47,.43-9.24,1.21-4.86,1.35-8.73,3.78-11.94,6.42-2.41,1.98-4.48,4.09-6.46,6.06-2.96,2.97-5.69,5.6-8.82,7.44-1.57,.92-3.24,1.67-5.17,2.2-1.93,.53-4.11,.85-6.72,.85-2.65,0-4.86-.33-6.81-.87-3.4-.96-6.05-2.58-8.65-4.71-1.94-1.59-3.82-3.48-5.81-5.47-2.99-2.98-6.26-6.25-10.61-8.82-2.17-1.28-4.61-2.37-7.35-3.13C6.37,.41,3.34,0,0,0V9H0Z"/>
  </g>
</svg>