<?xml version="1.0" encoding="UTF-8"?>
<svg id="Capa_2" data-name="Capa 2" xmlns="http://www.w3.org/2000/svg" viewBox="0 0 100 100">
  <defs>
    <style>
      .cls-1 {
        fill-rule: evenodd;
      }
    </style>
  </defs>
  <g id="Capa_2-2" data-name="Capa 2">
    <g id="Address">
      <path d="M50,100C22.43,100,0,77.57,0,50S22.43,0,50,0s50,22.43,50,50-22.43,50-50,50Zm0-92.97C26.31,7.03,7.03,26.31,7.03,50s19.28,42.97,42.97,42.97,42.97-19.28,42.97-42.97S73.69,7.03,50,7.03Z"/>
      <path class="cls-1" d="M50,21.31c-11.45,0-20.73,9.28-20.73,20.73,0,2.32,.46,4.54,1.21,6.68,2.63,7.43,13.77,21.9,19.15,29.77,.18,.26,.57,.26,.75,0,5.38-7.87,16.52-22.35,19.15-29.77,.76-2.14,1.21-4.36,1.21-6.68,0-11.45-9.28-20.73-20.73-20.73Zm0,32.33c-6.4,0-11.6-5.19-11.6-11.6s5.19-11.6,11.6-11.6,11.6,5.19,11.6,11.6-5.19,11.6-11.6,11.6Z"/>
    </g>
  </g>
</svg>