<?xml version="1.0" encoding="UTF-8"?>
<svg id="Capa_2" data-name="Capa 2" xmlns="http://www.w3.org/2000/svg" viewBox="0 0 100 100">
  <defs>
    <style>
      .cls-1 {
        fill-rule: evenodd;
      }
    </style>
  </defs>
  <g id="Capa_2-2" data-name="Capa 2">
    <g id="Email_Icon" data-name="Email Icon">
      <path d="M50,100C22.43,100,0,77.57,0,50S22.43,0,50,0s50,22.43,50,50-22.43,50-50,50Zm0-92.97C26.31,7.03,7.03,26.31,7.03,50s19.28,42.97,42.97,42.97,42.97-19.28,42.97-42.97S73.69,7.03,50,7.03Z"/>
      <g>
        <polygon class="cls-1" points="21.82 72.41 37.53 57.51 21.82 44.66 21.82 72.41 21.82 72.41"/>
        <polygon class="cls-1" points="62.59 57.42 78.18 72.21 78.18 44.66 62.59 57.42 62.59 57.42"/>
        <polygon class="cls-1" points="75.52 74.93 59.62 59.85 50 67.72 40.49 59.94 24.69 74.93 75.52 74.93 75.52 74.93"/>
        <g>
          <path class="cls-1" d="M50.06,36.76c-.47,.23-.88,.56-1.23,.96-.35,.4-.63,.88-.83,1.4-.2,.53-.3,1.08-.3,1.64s.11,.95,.33,1.24c.21,.28,.51,.41,.94,.41,.22,0,.44-.04,.66-.1,.21-.06,.41-.17,.62-.35,.2-.17,.38-.4,.56-.7,.18-.3,.32-.68,.43-1.12l.96-3.68c-.2-.03-.41-.04-.62-.04-.53,0-1.04,.12-1.51,.35Z"/>
          <path class="cls-1" d="M50.11,19.75l-28.28,17.57v2.41l28.18,23.06,28.18-23.06v-2.41l-28.07-17.57Zm10.27,20.87c-.29,.89-.72,1.68-1.26,2.34-.54,.66-1.19,1.2-1.93,1.58-.75,.38-1.57,.58-2.44,.58-.69,0-1.3-.16-1.83-.48-.44-.27-.77-.66-.99-1.17-.49,.53-1.01,.93-1.55,1.18-.64,.3-1.34,.45-2.1,.45-.63,0-1.17-.11-1.63-.33-.47-.22-.86-.53-1.17-.91-.31-.37-.55-.83-.7-1.35-.15-.52-.22-1.08-.22-1.67,0-.54,.07-1.09,.21-1.67,.14-.56,.36-1.11,.63-1.63,.28-.52,.63-1.01,1.04-1.47,.43-.47,.93-.87,1.48-1.2,.56-.34,1.18-.6,1.9-.81,.7-.2,1.48-.29,2.32-.29,.74,0,1.38,.06,1.91,.17,.52,.11,1.03,.28,1.52,.49l.19,.08-1.39,5.37c-.15,.56-.22,1.03-.21,1.4,0,.34,.06,.6,.15,.78,.09,.17,.2,.28,.36,.35,.17,.07,.38,.11,.6,.11,.35,0,.66-.11,.97-.33,.32-.22,.6-.54,.85-.96,.25-.43,.45-.95,.59-1.53,.15-.6,.23-1.25,.23-1.95,0-1.17-.19-2.21-.55-3.11-.37-.9-.87-1.62-1.53-2.22-.65-.59-1.43-1.05-2.34-1.35-.91-.3-1.92-.45-3-.45-1.19,0-2.3,.22-3.31,.67-1.01,.44-1.9,1.06-2.64,1.84-.74,.78-1.33,1.7-1.75,2.76-.42,1.05-.64,2.21-.64,3.43,0,1.48,.23,2.8,.69,3.94,.46,1.11,1.1,2.06,1.9,2.82,.8,.75,1.76,1.32,2.84,1.7,1.09,.38,2.29,.58,3.56,.58,.69,0,1.36-.04,1.98-.12,.6-.08,1.17-.18,1.69-.31,.51-.13,.98-.29,1.4-.45,.43-.18,.8-.36,1.11-.54,.3-.17,.56-.22,.83-.15,.18,.06,.42,.2,.56,.56l.55,1.42-.16,.11c-.98,.64-2.14,1.17-3.45,1.58-1.31,.41-2.82,.61-4.49,.61s-3.3-.27-4.76-.81c-1.46-.54-2.74-1.33-3.8-2.34-1.07-1.02-1.91-2.26-2.51-3.7-.6-1.44-.91-3.09-.91-4.89,0-1,.13-2,.39-2.96,.26-.96,.64-1.87,1.12-2.71,.49-.84,1.08-1.62,1.75-2.32,.68-.69,1.45-1.31,2.28-1.81,.84-.5,1.75-.89,2.72-1.17,2.23-.64,4.73-.55,6.94,.26,1.23,.44,2.34,1.1,3.31,1.95,.95,.83,1.72,1.87,2.29,3.09,.57,1.2,.86,2.59,.86,4.11,0,1.02-.15,1.99-.45,2.87Z"/>
        </g>
      </g>
    </g>
  </g>
</svg>