<?xml version="1.0" encoding="UTF-8"?>
<svg id="Capa_2" data-name="Capa 2" xmlns="http://www.w3.org/2000/svg" viewBox="0 0 124.28 100">
  <defs>
    <style>
      .cls-1 {
        fill: #fff;
      }
    </style>
  </defs>
  <g id="Capa_2-2" data-name="Capa 2">
    <g>
      <path class="cls-1" d="M69.58,54.05c-1.4-.4-2.83-.76-4.3-1.06,8.27-4.98,13.84-14.07,13.84-24.49,0-15.72-12.66-28.5-28.23-28.5S22.63,12.79,22.63,28.5c0,10.49,5.66,19.64,14.04,24.59C14.27,57.85,0,74.01,0,96.32c0,1.49,1.21,2.7,2.7,2.7s2.7-1.21,2.7-2.7c0-27.15,22.85-39.31,45.5-39.31h.95c5.42,0,10.45,.62,15.04,1.8,.77-1.67,1.67-3.26,2.69-4.76Zm-18.68-2.44c-12.61,0-22.86-10.37-22.86-23.11S38.29,5.4,50.9,5.4s22.83,10.37,22.83,23.1-10.24,23.11-22.83,23.11Z"/>
      <path class="cls-1" d="M96.79,45.02c-15.16,0-27.49,12.33-27.49,27.49s12.33,27.49,27.49,27.49,27.49-12.33,27.49-27.49-12.33-27.49-27.49-27.49Zm0,49.59c-12.18,0-22.09-9.91-22.09-22.1s9.91-22.09,22.09-22.09,22.09,9.91,22.09,22.09-9.91,22.1-22.09,22.1Z"/>
      <path class="cls-1" d="M110.01,69.81h-10.52v-10.52c0-1.49-1.21-2.7-2.7-2.7s-2.7,1.21-2.7,2.7v10.52h-10.52c-1.49,0-2.7,1.21-2.7,2.7s1.21,2.7,2.7,2.7h10.52v10.53c0,1.49,1.21,2.7,2.7,2.7s2.7-1.21,2.7-2.7v-10.53h10.52c1.49,0,2.7-1.21,2.7-2.7s-1.21-2.7-2.7-2.7Z"/>
    </g>
  </g>
</svg>